<?xml version="1.0" encoding="UTF-8" standalone="no"?>
<!-- Created with Inkscape (http://www.inkscape.org/) -->

<svg
   xmlns:dc="http://purl.org/dc/elements/1.1/"
   xmlns:cc="http://creativecommons.org/ns#"
   xmlns:rdf="http://www.w3.org/1999/02/22-rdf-syntax-ns#"
   xmlns:svg="http://www.w3.org/2000/svg"
   xmlns="http://www.w3.org/2000/svg"
   xmlns:sodipodi="http://sodipodi.sourceforge.net/DTD/sodipodi-0.dtd"
   xmlns:inkscape="http://www.inkscape.org/namespaces/inkscape"
   width="32"
   height="32"
   id="svg3108"
   version="1.1"
   inkscape:version="0.48.3.1 r9886"
   sodipodi:docname="icon.svg"
   inkscape:export-filename="/home/honki/Desktop/windows 新酷音輸入法 icon/48_icon.png"
   inkscape:export-xdpi="135"
   inkscape:export-ydpi="135">
  <defs
     id="defs3110" />
  <sodipodi:namedview
     id="base"
     pagecolor="#ffffff"
     bordercolor="#666666"
     borderopacity="1.0"
     inkscape:pageopacity="0.0"
     inkscape:pageshadow="2"
     inkscape:zoom="9.9253859"
     inkscape:cx="1.9788825"
     inkscape:cy="12.54699"
     inkscape:document-units="px"
     inkscape:current-layer="layer1"
     showgrid="false"
     inkscape:window-width="1366"
     inkscape:window-height="744"
     inkscape:window-x="0"
     inkscape:window-y="24"
     inkscape:window-maximized="1"
     showguides="true"
     inkscape:guide-bbox="true" />
  <metadata
     id="metadata3113">
    <rdf:RDF>
      <cc:Work
         rdf:about="">
        <dc:format>image/svg+xml</dc:format>
        <dc:type
           rdf:resource="http://purl.org/dc/dcmitype/StillImage" />
        <dc:title></dc:title>
      </cc:Work>
    </rdf:RDF>
  </metadata>
  <g
     inkscape:label="Layer 1"
     inkscape:groupmode="layer"
     id="layer1"
     transform="translate(0,-1020.3622)">
    <rect
       style="fill:#ffffff;fill-opacity:1;fill-rule:nonzero;stroke:none"
       id="rect3116"
       width="30"
       height="30"
       x="1"
       y="1021.3622" />
    <g
       id="g3141"
       transform="matrix(0.94545744,0,0,0.94545744,0.6718199,55.693118)">
      <path
         style="font-size:medium;font-style:normal;font-variant:normal;font-weight:normal;font-stretch:normal;text-indent:0;text-align:start;text-decoration:none;line-height:normal;letter-spacing:normal;word-spacing:normal;text-transform:none;direction:ltr;block-progression:tb;writing-mode:lr-tb;text-anchor:start;baseline-shift:baseline;color:#000000;fill:#000000;fill-opacity:1;stroke:none;stroke-width:49;marker:none;visibility:visible;display:inline;overflow:visible;enable-background:accumulate;font-family:Sans;-inkscape-font-specification:Sans"
         d="M 22.59375 4.25 L 22.5625 8.34375 L 20.59375 8.34375 L 20.59375 5.5 L 17.84375 5.5 L 17.65625 9.71875 L 17.65625 10.96875 L 18.90625 10.96875 L 22.53125 10.96875 L 22.5 13.09375 L 17 13.09375 L 16.78125 15.9375 L 22.46875 15.9375 L 22.46875 16.84375 L 25.3125 16.84375 L 25.3125 15.9375 L 29.5 15.9375 L 29.28125 13.09375 L 25.28125 13.09375 L 25.28125 10.96875 L 28.40625 10.96875 L 28.1875 8.34375 L 25.25 8.34375 L 25.21875 4.25 L 22.59375 4.25 z M 2.71875 4.28125 L 2.5 6.8125 L 6.46875 6.8125 L 6.46875 8.9375 L 3.90625 8.9375 L 2.625 8.9375 L 2.65625 10.25 L 3.03125 26.40625 L 3.0625 27.75 L 4.3125 27.75 L 14.65625 27.75 L 15.9375 27.75 L 15.9375 26.5 L 15.96875 10.21875 L 15.96875 8.9375 L 14.6875 8.9375 L 12.53125 8.9375 L 12.53125 6.8125 L 16.21875 6.8125 L 16.03125 4.28125 L 2.71875 4.28125 z M 8.8125 6.8125 L 10.28125 6.8125 L 10.28125 8.9375 L 8.8125 8.9375 L 8.8125 6.8125 z M 5.28125 11.59375 L 6.46875 11.59375 L 6.46875 16.125 L 5.5 17.125 L 5.28125 11.59375 z M 8.8125 11.59375 L 10.28125 11.59375 L 10.28125 18.59375 L 10.28125 19.875 L 11.25 19.875 L 13.8125 19.875 L 13.78125 21.28125 L 5.65625 21.28125 L 5.625 20.46875 L 5.71875 20.5625 L 8.4375 17.5 L 8.8125 17.15625 L 8.8125 16.625 L 8.8125 11.59375 z M 12.53125 11.59375 L 13.9375 11.59375 L 13.84375 17.34375 L 12.53125 17.34375 L 12.53125 11.59375 z M 17.1875 17.9375 L 17.21875 19.21875 L 17.28125 26.5 L 17.3125 27.75 L 18.5625 27.75 L 27.65625 27.75 L 28.90625 27.75 L 28.90625 26.5 L 29.0625 19.21875 L 29.09375 17.9375 L 27.8125 17.9375 L 18.46875 17.9375 L 17.1875 17.9375 z M 19.75 20.875 L 26.3125 20.875 L 26.09375 24.8125 L 19.90625 24.8125 L 19.75 20.875 z M 5.75 23.84375 L 13.75 23.84375 L 13.71875 25.21875 L 5.8125 25.125 L 5.75 23.84375 z "
         transform="matrix(1.0576891,0,0,1.0576891,-0.71057656,1020.3199)"
         id="path3028" />
    </g>
  </g>
</svg>
